<?xml version="1.0" encoding="UTF-8" standalone="no"?>
<!-- Generator: Adobe Illustrator 19.2.1, SVG Export Plug-In . SVG Version: 6.00 Build 0)  -->

<svg
   version="1.1"
   id="layer"
   x="0px"
   y="0px"
   viewBox="0 0 600.09998 172.3"
   xml:space="preserve"
   sodipodi:docname="mitacs-logo-vector.svg"
   width="600.09998"
   height="172.3"
   inkscape:version="1.1.1 (3bf5ae0d25, 2021-09-20)"
   xmlns:inkscape="http://www.inkscape.org/namespaces/inkscape"
   xmlns:sodipodi="http://sodipodi.sourceforge.net/DTD/sodipodi-0.dtd"
   xmlns="http://www.w3.org/2000/svg"
   xmlns:svg="http://www.w3.org/2000/svg"><defs
   id="defs19" /><sodipodi:namedview
   id="namedview17"
   pagecolor="#ffffff"
   bordercolor="#666666"
   borderopacity="1.0"
   inkscape:pageshadow="2"
   inkscape:pageopacity="0.0"
   inkscape:pagecheckerboard="0"
   showgrid="false"
   fit-margin-top="0"
   fit-margin-left="0"
   fit-margin-right="0"
   fit-margin-bottom="0"
   inkscape:zoom="1.2868098"
   inkscape:cx="305.40644"
   inkscape:cy="90.922527"
   inkscape:window-width="1920"
   inkscape:window-height="1043"
   inkscape:window-x="303"
   inkscape:window-y="0"
   inkscape:window-maximized="1"
   inkscape:current-layer="layer" />
<polyline
   points="170.9,405.1 133.5,405.1 151.4,317.1 111.6,405.1 77.5,405.1 73.9,317.1 55.8,405.1 20.3,405.1 43.5,293.1   104.6,293.1 104.7,359.3 132.3,293.1 194,293.1 "
   id="polyline2"
   transform="translate(-20.3,-234.7)" />
<polyline
   points="227.5,405.1 188.2,405.1 205.8,319.7 245.1,319.7 "
   id="polyline4"
   transform="translate(-20.3,-234.7)" />
<path
   d="m 508.3,112.2 c -4.4,-2.7 -10.6,-4.4 -15.7,-4.4 -14.2,0 -25.1,10.7 -25.1,25.2 0,10.1 7.5,14.8 16.8,14.8 6.4,0 12.6,-1.5 18.1,-4.9 l -4.2,25.4 c -9.6,3 -19.8,4 -29.9,4 -21.6,0 -42.6,-7.7 -42.6,-33.6 0,-37.3 27.4,-55.4 61.1,-55.4 9.3,0 18.8,0.8 27.8,3.7"
   id="path6" />
<path
   d="m 592.9,109 c -7.8,-3.2 -16.2,-5.4 -24.7,-5.4 -3.6,0 -13.2,0.3 -13.2,5.7 0,9.7 39.5,7.2 39.5,29.4 0,28.9 -29.9,33.6 -51.9,33.6 -11.4,0 -22.8,-1.7 -33.8,-4.7 l 6.5,-23.4 c 7.8,4.3 16.8,7 25.8,7 4.1,0 15.5,-0.3 15.5,-6.4 0,-8.1 -38.5,-5.2 -38.5,-29.4 0,-26.9 31.8,-32.4 52.1,-32.4 10.1,0 20.1,1.7 29.9,4"
   id="path8" />
<path
   d="m 384.3,84.9 c -0.3,0 -0.4,1.8 -0.5,3 -6.3,-2.8 -14.1,-4.2 -22.3,-4.2 -6.9,0 -13.3,1 -19.2,2.7 l 31,22.8 v 0 c 5.9,3 7.8,10.3 5.8,18.6 -2.7,11.2 -11.2,19.8 -22.1,19.8 -3.3,0 -5.9,-0.8 -8,-2.1 v 0 l -0.1,-0.1 -1,-0.8 -38.9,-30.2 c -2,4.3 -3.3,8.8 -4,13.5 -3.5,24.9 12.3,44 44,44 5.4,0 12.3,-2.4 18.7,-6.4 -0.4,1.8 -0.7,3.5 -1,4.8 h 40.7 c 0.5,-3.9 0.5,-8.2 2.6,-18.8 l 13.8,-66.7 c -6.9,0.2 -39.5,0.1 -39.5,0.1"
   id="path10" />
<path
   d="m 249.8,70.5 -2.9,14.4 H 233 l -5.1,24.5 h 13.9 l -6.2,29.7 c -0.8,3.9 -1.3,7.7 -1.3,11.8 0,16.3 10.1,21.3 24.5,21.3 12.1,0 22.4,-2.3 28.6,-4.2 l 4.1,-24.7 c -2.8,1 -5.9,1.5 -8.8,1.5 -4.4,0 -7,-1.7 -7,-6.5 0,-1.5 0.2,-2.9 0.5,-4.4 l 5.1,-24.5 h 17.8 l 0.5,-2.4 -47.8,-37.1"
   id="path12" />
<path
   d="m 238.5,20.5 c 0,11.4 -8.9,20.6 -20,20.6 -11,0 -20,-9.2 -20,-20.6 0,-11.4 8.9,-20.5 20,-20.5 11.1,0 20,9.2 20,20.5"
   id="path14" />
</svg>
